<svg xmlns="http://www.w3.org/2000/svg" width="20" height="22"><g transform="translate(1 1)" fill="#A3A3A4" fill-rule="nonzero"><path stroke="#A3A3A4" stroke-width=".2" d="M17.035 10.729v-2.58c0-.848-.685-1.537-1.528-1.537H9.416c.136-.508.14-1.043.011-1.553a3.037 3.037 0 002.314 1.071 3.06 3.06 0 003.05-3.065A3.06 3.06 0 0011.741 0a3.057 3.057 0 00-2.956 3.819 3.035 3.035 0 00-2.314-1.072 3.06 3.06 0 00-2.944 3.865H1.529C.686 6.612 0 7.302 0 8.148v10.315A1.535 1.535 0 001.529 20h13.978c.843 0 1.528-.69 1.528-1.537v-2.58a1.422 1.422 0 001.25-1.412v-2.33a1.42 1.42 0 00-1.25-1.412h0zm-5.294-9.436a1.77 1.77 0 011.763 1.772 1.77 1.77 0 01-1.763 1.773 1.77 1.77 0 01-1.764-1.773 1.77 1.77 0 011.764-1.772h0zm-5.27 2.746a1.77 1.77 0 011.574 2.573H4.897a1.75 1.75 0 01-.188-.8A1.77 1.77 0 016.471 4.04v-.001zm9.279 14.424a.245.245 0 01-.243.244H1.529a.244.244 0 01-.243-.244V8.148c0-.134.11-.244.243-.244h13.978c.134 0 .243.11.243.244v2.57h-4.539c-.754 0-1.368.618-1.368 1.377v2.422c0 .759.614 1.376 1.368 1.376h4.538v2.57h.001zm1.249-3.992a.13.13 0 01-.129.13h-5.612a.134.134 0 01-.092-.038.133.133 0 01-.037-.092v-2.33a.13.13 0 01.13-.13h5.611a.13.13 0 01.129.13v2.33h0z"/><circle cx="12.365" cy="13.306" r="1"/></g></svg>
