<svg xmlns="http://www.w3.org/2000/svg" width="512" height="512"><path d="M256 .026C114.623.026.026 114.623.026 256S114.623 511.974 256 511.974 511.974 397.377 511.974 256 397.377.026 256 .026zm0 471.952c-119.285 0-215.978-96.693-215.978-215.978S136.715 40.022 256 40.022 471.978 136.715 471.978 256 375.285 471.978 256 471.978z" data-original="#000000" class="active-path" data-old_color="#6d7581" fill="#6d7581"/><path d="M249.704 201.255h-61.697v-24.997h19.31c6.858 0 13.42-1.219 19.498-3.594 6.171-2.374 11.437-5.64 15.795-9.796 4.358-4.202 7.922-9.249 10.546-15.232 2.734-5.906 4.047-12.499 4.047-19.623h26.794v255.974h-34.293V201.255z" data-original="#000000" class="active-path" data-old_color="#6d7581" fill="#6d7581"/></svg>
