<svg width="20" height="20" xmlns="http://www.w3.org/2000/svg"><path d="M19.9141231 12.4023799L16.0543294 1.0379481C15.8546813.425303 15.2844033.0076551 14.6370614 0c-.1698711 0-.3377319.0299985-.4975515.0869957L3.1230154 4.0677966c-.3788197.1391288-.6862922.4226981-.8543814.7879606h-.7649227C.6744587 4.8557572 0 5.5517224 0 6.4056797v12.0433978C0 19.3040348.6734536 20 1.5037113 20h11.6718553c.8292526 0 1.5027062-.6959652 1.5027062-1.5499225V15.939203l4.3151287-1.559922c.3805147-.1391568.6892532-.4239724.8573969-.7909604.1740302-.37205.1967203-.7966312.0633247-1.1849408v-.0009999zm-6.7817781 6.0016999H1.5459278v-1.6699165H13.132345v1.6699165zm0-3.5978201v.3339833H1.5459278V6.4506775H13.132345v8.3555822zM5.6198194 4.8567572l8.9901029-3.2498375 2.8687112 8.4465776-2.8003607.9939503V6.4066797c0-.8549573-.6734536-1.5499225-1.5037113-1.5499225H5.6198194zm9.0584534 9.3905304v-1.5139243l3.3109793-1.1759412.4523195 1.3299335-3.7632988 1.359932z" fill="#A3A3A4" fill-rule="nonzero"/></svg>
