<svg width="50" height="50" viewBox="0 0 50 50" fill="none" xmlns="http://www.w3.org/2000/svg"><path fill-rule="evenodd" clip-rule="evenodd" d="M25 -3.8147e-05C11.1943 -3.8147e-05 0 11.1926 0 25C0 38.8073 11.1932 50 25 50C38.8079 50 50 38.8073 50 25C50 11.1926 38.8079 -3.8147e-05 25 -3.8147e-05ZM25 7.47559C29.5682 7.47559 33.27 11.1786 33.27 15.7449C33.27 20.3122 29.5682 24.0141 25 24.0141C20.434 24.0141 16.7322 20.3122 16.7322 15.7449C16.7322 11.1786 20.434 7.47559 25 7.47559ZM13.0468 39.0577C16.2654 41.8042 20.4383 43.4636 24.9944 43.4636C29.5517 43.4636 33.7257 41.8042 36.9432 39.0566C37.7283 38.3878 38.1786 37.4093 38.1786 36.3792C38.1786 31.7482 34.4449 28.0419 29.8119 28.0419H20.1901C15.5582 28.0419 11.8103 31.7482 11.8103 36.3792C11.8103 37.4082 12.2627 38.3889 13.0468 39.0577Z" fill="white"/></svg>
